HIERARCHY
ROOT Hips
{
    OFFSET 0.000000 0.000000 0.000000
    CHANNELS 6 Xposition Yposition Zposition Zrotation Xrotation Yrotation
    JOINT Spine
    {
        OFFSET -0.000000 14.517291 0.000000
        CHANNELS 3 Zrotation Xrotation Yrotation
        JOINT Spine1
        {
            OFFSET -0.000000 37.558300 0.000000
            CHANNELS 3 Zrotation Xrotation Yrotation
            JOINT Neck
            {
                OFFSET -0.000000 37.404057 3.400369
                CHANNELS 3 Zrotation Xrotation Yrotation
                JOINT Head
                {
                    OFFSET -0.000000 24.785618 -3.540803
                    CHANNELS 3 Zrotation Xrotation Yrotation
                    End Site
                    {
                        OFFSET -0.000000 35.408028 0.000000
                    }
                }
            }
            JOINT LeftShoulder
            {
                OFFSET 6.992933 33.973492 -0.192664
                CHANNELS 3 Zrotation Xrotation Yrotation
                JOINT LeftArm
                {
                    OFFSET 21.527611 0.000000 0.000000
                    CHANNELS 3 Zrotation Xrotation Yrotation
                    JOINT LeftForeArm
                    {
                        OFFSET 56.353916 0.000000 0.000000
                        CHANNELS 3 Zrotation Xrotation Yrotation
                        JOINT LeftHand
                        {
                            OFFSET 47.774071 0.000000 0.000000
                            CHANNELS 3 Zrotation Xrotation Yrotation
                            End Site
                            {
                                OFFSET 26.556021 0.000000 0.000000
                            }
                        }
                    }
                }
            }
            JOINT RightShoulder
            {
                OFFSET -7.065357 33.973492 -0.192664
                CHANNELS 3 Zrotation Xrotation Yrotation
                JOINT RightArm
                {
                    OFFSET -21.527611 0.000000 0.000000
                    CHANNELS 3 Zrotation Xrotation Yrotation
                    JOINT RightForeArm
                    {
                        OFFSET -56.353916 0.000000 0.000000
                        CHANNELS 3 Zrotation Xrotation Yrotation
                        JOINT RightHand
                        {
                            OFFSET -47.774071 0.000000 0.000000
                            CHANNELS 3 Zrotation Xrotation Yrotation
                            End Site
                            {
                                OFFSET -26.556021 0.000000 0.000000
                            }
                        }
                    }
                }
            }
        }
    }
    JOINT LeftUpLeg
    {
        OFFSET 17.704014 0.000000 0.000000
        CHANNELS 3 Zrotation Xrotation Yrotation
        JOINT LeftLeg
        {
            OFFSET -0.000000 -81.181816 0.000000
            CHANNELS 3 Zrotation Xrotation Yrotation
            JOINT LeftFoot
            {
                OFFSET -0.000000 -62.821102 0.000000
                CHANNELS 3 Zrotation Xrotation Yrotation
                JOINT LeftToeBase
                {
                    OFFSET -0.000000 -11.507608 26.556021
                    CHANNELS 3 Zrotation Xrotation Yrotation
                    End Site
                    {
                        OFFSET -0.000000 0.000000 7.081605
                    }
                }
            }
        }
    }
    JOINT RightUpLeg
    {
        OFFSET -17.704014 0.000000 0.000000
        CHANNELS 3 Zrotation Xrotation Yrotation
        JOINT RightLeg
        {
            OFFSET -0.000000 -81.181816 0.000000
            CHANNELS 3 Zrotation Xrotation Yrotation
            JOINT RightFoot
            {
                OFFSET -0.000000 -62.821102 0.000000
                CHANNELS 3 Zrotation Xrotation Yrotation
                JOINT RightToeBase
                {
                    OFFSET -0.000000 -11.507608 26.556021
                    CHANNELS 3 Zrotation Xrotation Yrotation
                    End Site
                    {
                        OFFSET -0.000000 0.000000 7.081605
                    }
                }
            }
        }
    }
}
MOTION
Frames:    13
Frame Time:    0.008333
-14.348920    148.468430    -45.479321    -0.193917    -0.648080    -51.958546    -0.144703    0.835064    1.527854    0.299299    2.400379    0.501006    15.617530    -1.751504    14.152924    -8.609000    8.533874    11.583538    11.871434    -0.998946    -18.285969    -10.471025    -19.065027    -42.438560    7.887030    -38.973000    -25.193426    -23.013374    -29.642122    -44.454502    -8.407326    3.298108    -0.138273    35.078297    6.023949    77.877563    7.954438    -1.184801    105.125542    2.086365    -11.191700    19.391474    13.515545    -33.880146    -3.615530    -18.970306    31.423447    -4.467885    -4.520505    0.761959    34.218338    0.000000    0.000000    0.000000    -2.315232    -3.417213    2.609664    7.537614    47.705215    -1.235162    -6.188932    -37.531124    -16.339008    0.000000    0.000000    0.000000    
-14.589598    148.454239    -45.050831    -0.171762    -0.640315    -52.129707    -0.119886    0.779797    1.619880    0.284829    2.399182    0.532062    15.588326    -1.682340    14.159431    -8.571795    8.518873    11.606203    11.822137    -0.957823    -18.306496    -10.446767    -19.061983    -42.408794    7.844195    -38.903107    -25.215378    -23.071445    -29.542593    -44.486759    -8.427861    3.333601    -0.122755    35.034161    6.022635    77.899529    7.957250    -1.172062    105.109894    2.147006    -11.170274    19.378929    13.523018    -33.819630    -3.739125    -19.235260    31.674461    -4.501956    -4.238400    0.305963    34.562351    0.000000    0.000000    0.000000    -2.391554    -3.243013    2.719305    7.495708    47.605843    -1.230466    -6.071440    -37.549469    -16.271242    0.000000    0.000000    0.000000    
-14.806994    148.450562    -44.637108    -0.148277    -0.637759    -52.327206    -0.068566    0.773050    1.726844    0.211745    2.373389    0.569407    15.575687    -1.727529    14.175111    -8.531333    8.611011    11.628045    11.841638    -0.914465    -18.234867    -10.491693    -19.055134    -42.482880    7.854441    -38.847858    -25.219778    -23.010469    -29.511370    -44.438465    -8.431310    3.332649    -0.120053    35.032192    6.013105    77.905708    7.989457    -1.088691    105.106697    2.107909    -11.135309    19.437721    13.505542    -33.725990    -3.898210    -19.457623    31.854191    -4.450834    -3.959657    -0.123698    34.865597    0.000000    0.000000    0.000000    -2.469814    -3.066039    2.883765    7.470870    47.469948    -1.241034    -5.972870    -37.570473    -16.210442    0.000000    0.000000    0.000000    
-14.999217    148.454315    -44.248344    -0.079531    -0.603406    -52.527485    -0.028764    0.692420    1.841012    0.149652    2.359156    0.609010    15.621268    -1.663548    14.187170    -8.570126    8.589729    11.637800    11.833714    -0.932136    -18.261484    -10.486600    -18.982155    -42.424599    7.855106    -38.814877    -25.263206    -23.049265    -29.448370    -44.480888    -8.415979    3.309658    -0.101799    34.995045    6.040396    77.882713    7.972991    -1.081323    105.130653    2.132380    -11.108260    19.373367    13.478663    -33.681168    -4.043091    -19.614231    31.999371    -4.420557    -3.739708    -0.520146    35.133083    0.000000    0.000000    0.000000    -2.543117    -2.955550    3.017483    7.383968    47.328720    -1.178410    -5.869591    -37.582878    -16.164045    0.000000    0.000000    0.000000    
-15.181087    148.472626    -43.894093    -0.025091    -0.576076    -52.704720    -0.032294    0.670226    1.931493    0.171397    2.294920    0.638744    15.596533    -1.669868    14.196567    -8.557032    8.661738    11.657198    11.801604    -0.893493    -18.237371    -10.543910    -19.010328    -42.445992    7.813335    -38.751614    -25.321255    -23.011024    -29.399288    -44.467678    -8.440154    3.337179    -0.098099    34.952801    6.032557    77.904099    7.991357    -1.054389    105.131447    2.096453    -11.110850    19.428139    13.434525    -33.638866    -4.237248    -19.743128    32.140289    -4.277092    -3.616582    -0.930836    35.321331    0.000000    0.000000    0.000000    -2.590522    -2.829716    3.119510    7.226143    47.174187    -1.050583    -5.798096    -37.572315    -16.132956    0.000000    0.000000    0.000000    
-15.344352    148.509827    -43.550144    0.068648    -0.531664    -52.906509    -0.028408    0.579601    2.025568    0.177232    2.282814    0.670120    15.585178    -1.670573    14.236912    -8.574496    8.686782    11.701934    11.748825    -0.876226    -18.221537    -10.514874    -18.978903    -42.400528    7.828081    -38.740269    -25.362202    -23.044746    -29.355040    -44.532417    -8.500222    3.339396    -0.073524    34.958279    6.031554    77.907982    7.955302    -1.042824    105.151756    2.109826    -11.054610    19.419363    13.392057    -33.630203    -4.506834    -19.917973    32.223644    -3.944795    -3.479114    -1.245317    35.427368    0.000000    0.000000    0.000000    -2.653365    -2.747355    3.263980    7.094059    46.985199    -0.949943    -5.720550    -37.546219    -16.096968    0.000000    0.000000    0.000000    
-15.475500    148.551041    -43.234818    0.171900    -0.499676    -53.093361    -0.036345    0.505312    2.107094    0.156330    2.286483    0.697673    15.597886    -1.672941    14.266405    -8.599069    8.666026    11.727127    11.752052    -0.913856    -18.170649    -10.566348    -18.976692    -42.397388    7.796268    -38.688637    -25.431591    -23.001520    -29.323732    -44.492592    -8.508279    3.304024    -0.062497    34.935192    6.031159    77.915207    7.934856    -1.047724    105.165176    2.159114    -11.026274    19.456106    13.341655    -33.653767    -4.810122    -20.127054    32.312634    -3.596455    -3.391034    -1.515450    35.542583    0.000000    0.000000    0.000000    -2.723799    -2.688732    3.398324    6.943203    46.818954    -0.828323    -5.625532    -37.526917    -16.062037    0.000000    0.000000    0.000000    
-15.613815    148.598236    -42.953892    0.246041    -0.456501    -53.239372    -0.040279    0.466500    2.140703    0.152817    2.237072    0.709049    15.647891    -1.612928    14.327641    -8.661325    8.620633    11.783632    11.732864    -0.846488    -18.153030    -10.529391    -18.991777    -42.341213    7.820191    -38.678825    -25.470560    -23.025600    -29.282480    -44.560326    -8.515832    3.329113    0.007015    34.886890    6.025610    77.897369    7.871886    -1.114573    105.225655    2.144658    -11.022851    19.531523    13.300555    -33.660122    -5.045591    -20.260933    32.397205    -3.314770    -3.294291    -1.743956    35.598896    0.000000    0.000000    0.000000    -2.747905    -2.598754    3.520312    6.795045    46.610413    -0.770212    -5.515310    -37.487129    -15.999454    0.000000    0.000000    0.000000    
-15.718612    148.652130    -42.698879    0.352942    -0.403009    -53.394085    -0.064916    0.424444    2.209071    0.164085    2.181801    0.731695    15.701258    -1.575713    14.335490    -8.770800    8.535355    11.774368    11.728792    -0.864904    -18.133804    -10.566665    -19.024925    -42.333084    7.777769    -38.621410    -25.533323    -23.000967    -29.238283    -44.530357    -8.509504    3.355101    -0.002101    34.907135    5.965884    77.919128    7.841233    -1.077273    105.222649    2.182640    -10.940015    19.515959    13.274989    -33.711430    -5.279980    -20.443241    32.461033    -3.025667    -3.229327    -1.939686    35.718822    0.000000    0.000000    0.000000    -2.794572    -2.566215    3.686747    6.717453    46.412590    -0.716165    -5.475580    -37.438057    -16.007874    0.000000    0.000000    0.000000    
-15.807208    148.711319    -42.466946    0.464443    -0.356729    -53.518410    -0.105292    0.367544    2.212338    0.205626    2.196421    0.731875    15.673306    -1.619783    14.375248    -8.791489    8.487471    11.809279    11.695860    -0.907319    -18.047552    -10.579571    -19.064150    -42.307735    7.739717    -38.586502    -25.592482    -23.047745    -29.174612    -44.582939    -8.565571    3.273137    0.040684    34.887730    5.994012    77.921463    7.773479    -1.150963    105.268532    2.160722    -10.935064    19.590733    13.231583    -33.757378    -5.471963    -20.576136    32.498554    -2.880147    -3.165086    -2.093355    35.880955    0.000000    0.000000    0.000000    -2.854070    -2.533579    3.833781    6.668861    46.201714    -0.720755    -5.408088    -37.397251    -15.977592    0.000000    0.000000    0.000000    
-15.906988    148.767960    -42.260742    0.527434    -0.313395    -53.617542    -0.124610    0.358713    2.228075    0.230416    2.164573    0.736725    15.717089    -1.587610    14.428036    -8.855144    8.393296    11.850032    11.693117    -0.890801    -18.062454    -10.530572    -19.064856    -42.220608    7.876560    -38.498566    -25.521769    -23.204102    -28.973125    -44.685413    -8.583874    3.252134    0.064312    34.922951    5.982610    77.903107    7.734048    -1.162695    105.292816    2.153791    -10.900491    19.617199    13.211013    -33.765026    -5.576863    -20.641178    32.561115    -2.869582    -3.122923    -2.270683    36.040024    0.000000    0.000000    0.000000    -2.888483    -2.447747    3.976372    6.656324    45.963993    -0.742777    -5.345158    -37.347008    -15.955661    0.000000    0.000000    0.000000    
-15.989698    148.823502    -42.062603    0.597268    -0.268942    -53.704662    -0.123348    0.378817    2.212348    0.190022    2.114672    0.732322    15.772750    -1.633990    14.457730    -8.862756    8.351467    11.861455    11.746681    -0.935891    -17.986135    -10.573889    -19.089211    -42.217529    7.746387    -38.568886    -25.674536    -23.019733    -29.163437    -44.561745    -8.531858    3.267712    0.106304    34.940018    5.907290    77.903748    7.720289    -1.136600    105.340210    2.134515    -10.869548    19.587162    13.178093    -33.784012    -5.635858    -20.666382    32.636208    -2.919287    -3.077292    -2.420992    36.189793    0.000000    0.000000    0.000000    -2.941052    -2.347345    4.067745    6.614018    45.691624    -0.226629    -5.675832    -37.281517    -16.520792    0.000000    0.000000    0.000000    
-16.058796    148.882874    -41.904030    0.662891    -0.228889    -53.782959    -0.163843    0.397466    2.200137    0.225583    2.089911    0.727660    15.753101    -1.647865    14.468188    -8.850102    8.232200    11.865192    11.744873    -0.944491    -17.958755    -10.546655    -19.150330    -42.168095    7.747706    -38.522552    -25.688892    -23.049833    -29.092613    -44.593246    -8.520924    3.206800    0.114276    34.903515    5.947727    77.898643    7.682220    -1.227121    105.372063    2.181742    -10.905747    19.644585    13.146333    -33.797298    -5.592786    -20.622059    32.705669    -2.998949    -3.041274    -2.520658    36.271828    0.000000    0.000000    0.000000    -2.994197    -2.280949    4.148334    6.610981    45.458138    -0.253389    -5.640924    -37.225960    -16.449764    0.000000    0.000000    0.000000    
